<svg xmlns="http://www.w3.org/2000/svg" xmlns:xlink="http://www.w3.org/1999/xlink" width="1920" zoomAndPan="magnify" viewBox="0 0 1440 809.999993" height="1080" preserveAspectRatio="xMidYMid meet" version="1.0"><defs><g/><clipPath id="04c991133b"><rect x="0" width="1330" y="0" height="467"/></clipPath></defs><g transform="matrix(1, 0, 0, 1, 66, 124)"><g clip-path="url(#04c991133b)"><g fill="#7a4900" fill-opacity="1"><g transform="translate(305.758405, 184.208725)"><g><path d="M 66.78125 -99.75 L 110.34375 -99.75 L 110.34375 -93.609375 L 106.25 -93.609375 C 105.445312 -93.609375 104.757812 -93.265625 104.1875 -92.578125 C 103.625 -91.898438 103.515625 -91.101562 103.859375 -90.1875 L 128.28125 -29.203125 L 152.359375 -90.1875 C 152.703125 -91.101562 152.585938 -91.898438 152.015625 -92.578125 C 151.453125 -93.265625 150.769531 -93.609375 149.96875 -93.609375 L 146.046875 -93.609375 L 146.046875 -99.75 L 169.78125 -99.75 L 169.78125 -93.609375 L 167.0625 -93.609375 C 162.613281 -93.609375 159.476562 -91.554688 157.65625 -87.453125 L 121.28125 2.046875 L 115.296875 2.046875 L 85.75 -70.71875 L 56.03125 2.046875 L 50.046875 2.046875 L 13.671875 -87.453125 C 11.847656 -91.554688 8.65625 -93.609375 4.09375 -93.609375 L 1.359375 -93.609375 L 1.359375 -99.75 L 44.921875 -99.75 L 44.921875 -93.609375 L 41 -93.609375 C 40.195312 -93.609375 39.507812 -93.265625 38.9375 -92.578125 C 38.375 -91.898438 38.265625 -91.101562 38.609375 -90.1875 L 62.859375 -29.203125 L 82.5 -78.75 L 78.921875 -87.453125 C 77.097656 -91.554688 73.90625 -93.609375 69.34375 -93.609375 L 66.78125 -93.609375 Z M 66.78125 -99.75 "/></g></g></g><g fill="#7a4900" fill-opacity="1"><g transform="translate(479.630288, 184.208725)"><g><path d="M 49.875 -101.796875 L 56.03125 -101.796875 L 92.40625 -12.296875 C 94.226562 -8.203125 97.359375 -6.15625 101.796875 -6.15625 L 104.53125 -6.15625 L 104.53125 0 L 61.15625 0 L 61.15625 -6.15625 L 64.90625 -6.15625 C 65.707031 -6.15625 66.390625 -6.523438 66.953125 -7.265625 C 67.523438 -8.003906 67.640625 -8.769531 67.296875 -9.5625 L 59.265625 -29.546875 L 26.8125 -29.546875 L 18.953125 -9.5625 C 18.617188 -8.769531 18.707031 -8.003906 19.21875 -7.265625 C 19.726562 -6.523438 20.382812 -6.15625 21.1875 -6.15625 L 25.28125 -6.15625 L 25.28125 0 L 1.359375 0 L 1.359375 -6.15625 L 4.09375 -6.15625 C 8.65625 -6.15625 11.847656 -8.203125 13.671875 -12.296875 Z M 29.203125 -35.53125 L 57.046875 -35.53125 L 43.046875 -70.546875 Z M 29.203125 -35.53125 "/></g></g></g><g fill="#7a4900" fill-opacity="1"><g transform="translate(607.561813, 184.208725)"><g><path d="M 70.203125 -99.75 L 108.46875 -99.578125 L 108.46875 -93.609375 L 106.421875 -93.609375 C 105.046875 -93.609375 103.875 -93.09375 102.90625 -92.0625 C 101.945312 -91.039062 101.46875 -89.847656 101.46875 -88.484375 L 101.46875 -10.9375 C 101.46875 -9.5625 101.945312 -8.421875 102.90625 -7.515625 C 103.875 -6.609375 105.046875 -6.15625 106.421875 -6.15625 L 108.46875 -6.15625 L 108.46875 0 L 70.203125 0 L 70.203125 -6.15625 L 72.25 -6.15625 C 73.613281 -6.15625 74.78125 -6.609375 75.75 -7.515625 C 76.71875 -8.421875 77.203125 -9.5625 77.203125 -10.9375 L 77.203125 -46.796875 L 36.046875 -46.796875 L 36.046875 -10.9375 C 36.046875 -9.5625 36.523438 -8.421875 37.484375 -7.515625 C 38.453125 -6.609375 39.625 -6.15625 41 -6.15625 L 43.046875 -6.15625 L 43.046875 0 L 4.609375 0 L 4.609375 -6.15625 L 6.828125 -6.15625 C 8.191406 -6.15625 9.328125 -6.609375 10.234375 -7.515625 C 11.148438 -8.421875 11.609375 -9.5625 11.609375 -10.9375 L 11.609375 -88.65625 C 11.609375 -90.363281 11.148438 -91.613281 10.234375 -92.40625 C 9.328125 -93.207031 8.191406 -93.609375 6.828125 -93.609375 L 4.609375 -93.609375 L 4.609375 -99.75 L 43.046875 -99.578125 L 43.046875 -93.609375 L 41 -93.609375 C 39.625 -93.609375 38.453125 -93.09375 37.484375 -92.0625 C 36.523438 -91.039062 36.046875 -89.847656 36.046875 -88.484375 L 36.046875 -52.953125 L 77.203125 -52.953125 L 77.203125 -88.65625 C 77.203125 -90.019531 76.71875 -91.1875 75.75 -92.15625 C 74.78125 -93.125 73.613281 -93.609375 72.25 -93.609375 L 70.203125 -93.609375 Z M 70.203125 -99.75 "/></g></g></g><g fill="#7a4900" fill-opacity="1"><g transform="translate(742.666559, 184.208725)"><g><path d="M 59.4375 -95.65625 C 52.71875 -95.65625 47.304688 -93.601562 43.203125 -89.5 C 39.109375 -85.40625 36.175781 -79.882812 34.40625 -72.9375 C 32.644531 -65.988281 31.765625 -58.300781 31.765625 -49.875 C 31.765625 -41.445312 32.644531 -33.757812 34.40625 -26.8125 C 36.175781 -19.863281 39.109375 -14.3125 43.203125 -10.15625 C 47.304688 -6 52.71875 -3.921875 59.4375 -3.921875 C 66.15625 -3.921875 71.5625 -6 75.65625 -10.15625 C 79.757812 -14.3125 82.722656 -19.863281 84.546875 -26.8125 C 86.367188 -33.757812 87.28125 -41.445312 87.28125 -49.875 C 87.28125 -58.300781 86.367188 -65.988281 84.546875 -72.9375 C 82.722656 -79.882812 79.757812 -85.40625 75.65625 -89.5 C 71.5625 -93.601562 66.15625 -95.65625 59.4375 -95.65625 Z M 59.4375 -101.796875 C 71.164062 -101.796875 80.875 -99.460938 88.5625 -94.796875 C 96.25 -90.128906 102 -83.863281 105.8125 -76 C 109.632812 -68.144531 111.546875 -59.4375 111.546875 -49.875 C 111.546875 -40.3125 109.632812 -31.597656 105.8125 -23.734375 C 102 -15.878906 96.25 -9.617188 88.5625 -4.953125 C 80.875 -0.285156 71.164062 2.046875 59.4375 2.046875 C 47.707031 2.046875 38 -0.285156 30.3125 -4.953125 C 22.632812 -9.617188 16.914062 -15.878906 13.15625 -23.734375 C 9.394531 -31.597656 7.515625 -40.3125 7.515625 -49.875 C 7.515625 -59.4375 9.394531 -68.144531 13.15625 -76 C 16.914062 -83.863281 22.632812 -90.128906 30.3125 -94.796875 C 38 -99.460938 47.707031 -101.796875 59.4375 -101.796875 Z M 59.4375 -101.796875 "/></g></g></g><g fill="#7a4900" fill-opacity="1"><g transform="translate(883.407446, 184.208725)"><g><path d="M 59.4375 -95.65625 C 52.71875 -95.65625 47.304688 -93.601562 43.203125 -89.5 C 39.109375 -85.40625 36.175781 -79.882812 34.40625 -72.9375 C 32.644531 -65.988281 31.765625 -58.300781 31.765625 -49.875 C 31.765625 -41.445312 32.644531 -33.757812 34.40625 -26.8125 C 36.175781 -19.863281 39.109375 -14.3125 43.203125 -10.15625 C 47.304688 -6 52.71875 -3.921875 59.4375 -3.921875 C 66.15625 -3.921875 71.5625 -6 75.65625 -10.15625 C 79.757812 -14.3125 82.722656 -19.863281 84.546875 -26.8125 C 86.367188 -33.757812 87.28125 -41.445312 87.28125 -49.875 C 87.28125 -58.300781 86.367188 -65.988281 84.546875 -72.9375 C 82.722656 -79.882812 79.757812 -85.40625 75.65625 -89.5 C 71.5625 -93.601562 66.15625 -95.65625 59.4375 -95.65625 Z M 59.4375 -101.796875 C 71.164062 -101.796875 80.875 -99.460938 88.5625 -94.796875 C 96.25 -90.128906 102 -83.863281 105.8125 -76 C 109.632812 -68.144531 111.546875 -59.4375 111.546875 -49.875 C 111.546875 -40.3125 109.632812 -31.597656 105.8125 -23.734375 C 102 -15.878906 96.25 -9.617188 88.5625 -4.953125 C 80.875 -0.285156 71.164062 2.046875 59.4375 2.046875 C 47.707031 2.046875 38 -0.285156 30.3125 -4.953125 C 22.632812 -9.617188 16.914062 -15.878906 13.15625 -23.734375 C 9.394531 -31.597656 7.515625 -40.3125 7.515625 -49.875 C 7.515625 -59.4375 9.394531 -68.144531 13.15625 -76 C 16.914062 -83.863281 22.632812 -90.128906 30.3125 -94.796875 C 38 -99.460938 47.707031 -101.796875 59.4375 -101.796875 Z M 59.4375 -101.796875 "/></g></g></g><g fill="#7a4900" fill-opacity="1"><g transform="translate(3.552591, 350.795676)"><g><path d="M 40.65625 -101.796875 C 47.488281 -101.796875 53.296875 -101 58.078125 -99.40625 C 62.859375 -97.8125 66.753906 -95.960938 69.765625 -93.859375 C 72.785156 -91.753906 75.007812 -89.90625 76.4375 -88.3125 C 77.863281 -86.71875 78.578125 -85.921875 78.578125 -85.921875 L 78.578125 -72.9375 L 72.59375 -72.9375 L 72.421875 -74.46875 C 71.960938 -77.882812 70.566406 -81.210938 68.234375 -84.453125 C 65.898438 -87.703125 62.828125 -90.378906 59.015625 -92.484375 C 55.203125 -94.597656 50.847656 -95.65625 45.953125 -95.65625 C 41.390625 -95.65625 37.515625 -94.488281 34.328125 -92.15625 C 31.140625 -89.820312 29.546875 -86.316406 29.546875 -81.640625 C 29.546875 -74.472656 33.191406 -69.066406 40.484375 -65.421875 L 66.953125 -52.265625 C 72.648438 -49.421875 76.835938 -45.945312 79.515625 -41.84375 C 82.191406 -37.75 83.53125 -33.023438 83.53125 -27.671875 C 83.53125 -18.441406 80.023438 -11.179688 73.015625 -5.890625 C 66.015625 -0.597656 56.765625 2.046875 45.265625 2.046875 C 38.085938 2.046875 31.960938 1.222656 26.890625 -0.421875 C 21.828125 -2.078125 17.703125 -3.957031 14.515625 -6.0625 C 11.328125 -8.164062 9.019531 -10.039062 7.59375 -11.6875 C 6.175781 -13.34375 5.46875 -14.171875 5.46875 -14.171875 L 5.46875 -26.640625 L 11.28125 -26.640625 L 11.609375 -25.28125 C 12.179688 -21.863281 13.804688 -18.503906 16.484375 -15.203125 C 19.160156 -11.898438 22.632812 -9.191406 26.90625 -7.078125 C 31.175781 -4.972656 35.875 -3.921875 41 -3.921875 C 46.800781 -3.921875 51.320312 -5.316406 54.5625 -8.109375 C 57.8125 -10.898438 59.4375 -14.6875 59.4375 -19.46875 C 59.4375 -22.425781 58.609375 -25.128906 56.953125 -27.578125 C 55.304688 -30.035156 52.378906 -32.285156 48.171875 -34.328125 L 23.40625 -46.625 C 17.132812 -49.707031 12.578125 -53.210938 9.734375 -57.140625 C 6.890625 -61.066406 5.46875 -65.820312 5.46875 -71.40625 C 5.46875 -80.625 8.597656 -87.992188 14.859375 -93.515625 C 21.117188 -99.035156 29.71875 -101.796875 40.65625 -101.796875 Z M 40.65625 -101.796875 "/></g></g></g><g fill="#7a4900" fill-opacity="1"><g transform="translate(114.404857, 350.795676)"><g><path d="M 43.046875 0 L 4.609375 0 L 4.609375 -6.15625 L 6.828125 -6.15625 C 8.191406 -6.15625 9.328125 -6.632812 10.234375 -7.59375 C 11.148438 -8.5625 11.609375 -9.734375 11.609375 -11.109375 L 11.609375 -88.484375 C 11.609375 -89.847656 11.148438 -91.039062 10.234375 -92.0625 C 9.328125 -93.09375 8.191406 -93.609375 6.828125 -93.609375 L 4.609375 -93.609375 L 4.609375 -99.578125 L 63.03125 -99.578125 C 68.613281 -99.578125 73.648438 -98.296875 78.140625 -95.734375 C 82.640625 -93.171875 86.226562 -89.5 88.90625 -84.71875 C 91.582031 -79.9375 92.921875 -74.1875 92.921875 -67.46875 C 92.921875 -60.75 91.582031 -54.96875 88.90625 -50.125 C 86.226562 -45.289062 82.640625 -41.59375 78.140625 -39.03125 C 73.648438 -36.46875 68.613281 -35.1875 63.03125 -35.1875 L 36.046875 -35.1875 L 36.046875 -10.9375 C 36.046875 -9.5625 36.523438 -8.421875 37.484375 -7.515625 C 38.453125 -6.609375 39.625 -6.15625 41 -6.15625 L 43.046875 -6.15625 Z M 36.046875 -41.34375 L 49.53125 -41.34375 C 55.226562 -41.34375 59.84375 -43.789062 63.375 -48.6875 C 66.90625 -53.582031 68.671875 -59.84375 68.671875 -67.46875 C 68.671875 -72.25 67.875 -76.632812 66.28125 -80.625 C 64.6875 -84.613281 62.460938 -87.773438 59.609375 -90.109375 C 56.765625 -92.441406 53.40625 -93.609375 49.53125 -93.609375 L 36.046875 -93.609375 Z M 36.046875 -41.34375 "/></g></g></g><g fill="#7a4900" fill-opacity="1"><g transform="translate(232.772001, 350.795676)"><g><path d="M 59.4375 -95.65625 C 52.71875 -95.65625 47.304688 -93.601562 43.203125 -89.5 C 39.109375 -85.40625 36.175781 -79.882812 34.40625 -72.9375 C 32.644531 -65.988281 31.765625 -58.300781 31.765625 -49.875 C 31.765625 -41.445312 32.644531 -33.757812 34.40625 -26.8125 C 36.175781 -19.863281 39.109375 -14.3125 43.203125 -10.15625 C 47.304688 -6 52.71875 -3.921875 59.4375 -3.921875 C 66.15625 -3.921875 71.5625 -6 75.65625 -10.15625 C 79.757812 -14.3125 82.722656 -19.863281 84.546875 -26.8125 C 86.367188 -33.757812 87.28125 -41.445312 87.28125 -49.875 C 87.28125 -58.300781 86.367188 -65.988281 84.546875 -72.9375 C 82.722656 -79.882812 79.757812 -85.40625 75.65625 -89.5 C 71.5625 -93.601562 66.15625 -95.65625 59.4375 -95.65625 Z M 59.4375 -101.796875 C 71.164062 -101.796875 80.875 -99.460938 88.5625 -94.796875 C 96.25 -90.128906 102 -83.863281 105.8125 -76 C 109.632812 -68.144531 111.546875 -59.4375 111.546875 -49.875 C 111.546875 -40.3125 109.632812 -31.597656 105.8125 -23.734375 C 102 -15.878906 96.25 -9.617188 88.5625 -4.953125 C 80.875 -0.285156 71.164062 2.046875 59.4375 2.046875 C 47.707031 2.046875 38 -0.285156 30.3125 -4.953125 C 22.632812 -9.617188 16.914062 -15.878906 13.15625 -23.734375 C 9.394531 -31.597656 7.515625 -40.3125 7.515625 -49.875 C 7.515625 -59.4375 9.394531 -68.144531 13.15625 -76 C 16.914062 -83.863281 22.632812 -90.128906 30.3125 -94.796875 C 38 -99.460938 47.707031 -101.796875 59.4375 -101.796875 Z M 59.4375 -101.796875 "/></g></g></g><g fill="#7a4900" fill-opacity="1"><g transform="translate(373.512888, 350.795676)"><g><path d="M 43.046875 0 L 4.609375 0 L 4.609375 -6.15625 L 6.828125 -6.15625 C 8.191406 -6.15625 9.328125 -6.632812 10.234375 -7.59375 C 11.148438 -8.5625 11.609375 -9.734375 11.609375 -11.109375 L 11.609375 -88.484375 C 11.609375 -89.847656 11.148438 -91.039062 10.234375 -92.0625 C 9.328125 -93.09375 8.191406 -93.609375 6.828125 -93.609375 L 4.609375 -93.609375 L 4.609375 -99.578125 L 55.859375 -99.578125 C 61.429688 -99.578125 66.46875 -98.46875 70.96875 -96.25 C 75.46875 -94.03125 79.054688 -90.8125 81.734375 -86.59375 C 84.410156 -82.382812 85.75 -77.320312 85.75 -71.40625 C 85.75 -65.132812 84.238281 -59.804688 81.21875 -55.421875 C 78.195312 -51.046875 74.238281 -47.832031 69.34375 -45.78125 L 85.40625 -12.984375 C 86.3125 -10.816406 87.757812 -9.132812 89.75 -7.9375 C 91.75 -6.75 93.945312 -6.15625 96.34375 -6.15625 L 98.21875 -6.15625 L 98.21875 0 L 72.9375 0 C 70.539062 0 68.316406 -0.648438 66.265625 -1.953125 C 64.222656 -3.265625 62.6875 -5.003906 61.65625 -7.171875 L 43.90625 -43.21875 L 36.046875 -43.21875 L 36.046875 -10.9375 C 36.046875 -9.5625 36.523438 -8.421875 37.484375 -7.515625 C 38.453125 -6.609375 39.625 -6.15625 41 -6.15625 L 43.046875 -6.15625 Z M 36.046875 -49.1875 L 45.78125 -49.1875 C 50.445312 -49.1875 54.257812 -51.289062 57.21875 -55.5 C 60.175781 -59.71875 61.65625 -65.078125 61.65625 -71.578125 C 61.65625 -77.609375 60.203125 -82.785156 57.296875 -87.109375 C 54.398438 -91.441406 50.5625 -93.609375 45.78125 -93.609375 L 36.046875 -93.609375 Z M 36.046875 -49.1875 "/></g></g></g><g fill="#7a4900" fill-opacity="1"><g transform="translate(494.954318, 350.795676)"><g><path d="M 2.5625 -99.75 L 92.234375 -99.40625 L 92.234375 -81.140625 L 86.09375 -81.140625 L 85.921875 -84.203125 C 85.691406 -86.828125 84.609375 -89.050781 82.671875 -90.875 C 80.734375 -92.695312 78.457031 -93.609375 75.84375 -93.609375 L 59.4375 -93.609375 L 59.4375 -10.9375 C 59.4375 -9.5625 59.921875 -8.421875 60.890625 -7.515625 C 61.859375 -6.609375 63.023438 -6.15625 64.390625 -6.15625 L 66.609375 -6.15625 L 66.609375 0 L 28.015625 0 L 28.015625 -6.15625 L 30.234375 -6.15625 C 31.597656 -6.15625 32.765625 -6.609375 33.734375 -7.515625 C 34.703125 -8.421875 35.1875 -9.5625 35.1875 -10.9375 L 35.1875 -93.609375 L 18.953125 -93.609375 C 16.335938 -93.609375 14.03125 -92.695312 12.03125 -90.875 C 10.039062 -89.050781 8.9375 -86.828125 8.71875 -84.203125 L 8.546875 -81.140625 L 2.5625 -81.140625 Z M 2.5625 -99.75 "/></g></g></g><g fill="#7a4900" fill-opacity="1"><g transform="translate(611.442729, 350.795676)"><g><path d="M 40.65625 -101.796875 C 47.488281 -101.796875 53.296875 -101 58.078125 -99.40625 C 62.859375 -97.8125 66.753906 -95.960938 69.765625 -93.859375 C 72.785156 -91.753906 75.007812 -89.90625 76.4375 -88.3125 C 77.863281 -86.71875 78.578125 -85.921875 78.578125 -85.921875 L 78.578125 -72.9375 L 72.59375 -72.9375 L 72.421875 -74.46875 C 71.960938 -77.882812 70.566406 -81.210938 68.234375 -84.453125 C 65.898438 -87.703125 62.828125 -90.378906 59.015625 -92.484375 C 55.203125 -94.597656 50.847656 -95.65625 45.953125 -95.65625 C 41.390625 -95.65625 37.515625 -94.488281 34.328125 -92.15625 C 31.140625 -89.820312 29.546875 -86.316406 29.546875 -81.640625 C 29.546875 -74.472656 33.191406 -69.066406 40.484375 -65.421875 L 66.953125 -52.265625 C 72.648438 -49.421875 76.835938 -45.945312 79.515625 -41.84375 C 82.191406 -37.75 83.53125 -33.023438 83.53125 -27.671875 C 83.53125 -18.441406 80.023438 -11.179688 73.015625 -5.890625 C 66.015625 -0.597656 56.765625 2.046875 45.265625 2.046875 C 38.085938 2.046875 31.960938 1.222656 26.890625 -0.421875 C 21.828125 -2.078125 17.703125 -3.957031 14.515625 -6.0625 C 11.328125 -8.164062 9.019531 -10.039062 7.59375 -11.6875 C 6.175781 -13.34375 5.46875 -14.171875 5.46875 -14.171875 L 5.46875 -26.640625 L 11.28125 -26.640625 L 11.609375 -25.28125 C 12.179688 -21.863281 13.804688 -18.503906 16.484375 -15.203125 C 19.160156 -11.898438 22.632812 -9.191406 26.90625 -7.078125 C 31.175781 -4.972656 35.875 -3.921875 41 -3.921875 C 46.800781 -3.921875 51.320312 -5.316406 54.5625 -8.109375 C 57.8125 -10.898438 59.4375 -14.6875 59.4375 -19.46875 C 59.4375 -22.425781 58.609375 -25.128906 56.953125 -27.578125 C 55.304688 -30.035156 52.378906 -32.285156 48.171875 -34.328125 L 23.40625 -46.625 C 17.132812 -49.707031 12.578125 -53.210938 9.734375 -57.140625 C 6.890625 -61.066406 5.46875 -65.820312 5.46875 -71.40625 C 5.46875 -80.625 8.597656 -87.992188 14.859375 -93.515625 C 21.117188 -99.035156 29.71875 -101.796875 40.65625 -101.796875 Z M 40.65625 -101.796875 "/></g></g></g><g fill="#7a4900" fill-opacity="1"><g transform="translate(722.294995, 350.795676)"><g/></g></g><g fill="#7a4900" fill-opacity="1"><g transform="translate(785.154731, 350.795676)"><g><path d="M 59.78125 -101.796875 C 67.1875 -101.796875 73.535156 -100.96875 78.828125 -99.3125 C 84.117188 -97.664062 88.441406 -95.757812 91.796875 -93.59375 C 95.160156 -91.4375 97.613281 -89.53125 99.15625 -87.875 C 100.695312 -86.226562 101.46875 -85.40625 101.46875 -85.40625 L 101.46875 -72.9375 L 95.3125 -72.9375 L 95.140625 -74.46875 C 93.773438 -81.070312 90.414062 -86.253906 85.0625 -90.015625 C 79.707031 -93.773438 73.332031 -95.65625 65.9375 -95.65625 C 54.550781 -95.65625 46.007812 -91.554688 40.3125 -83.359375 C 34.613281 -75.160156 31.765625 -64 31.765625 -49.875 C 31.765625 -35.757812 34.722656 -24.570312 40.640625 -16.3125 C 46.566406 -8.050781 54.597656 -3.921875 64.734375 -3.921875 C 67.128906 -3.921875 69.347656 -4.207031 71.390625 -4.78125 C 73.441406 -5.351562 75.378906 -6.035156 77.203125 -6.828125 L 77.203125 -39.28125 C 77.203125 -40.65625 76.71875 -41.796875 75.75 -42.703125 C 74.78125 -43.609375 73.613281 -44.0625 72.25 -44.0625 L 68.328125 -44.0625 L 68.328125 -50.21875 L 101.46875 -50.21875 L 101.46875 -14.171875 C 101.46875 -14.171875 100.640625 -13.34375 98.984375 -11.6875 C 97.335938 -10.039062 94.773438 -8.164062 91.296875 -6.0625 C 87.828125 -3.957031 83.382812 -2.078125 77.96875 -0.421875 C 72.5625 1.222656 66.046875 2.046875 58.421875 2.046875 C 46.921875 2.046875 37.410156 -0.285156 29.890625 -4.953125 C 22.378906 -9.617188 16.769531 -15.878906 13.0625 -23.734375 C 9.363281 -31.597656 7.515625 -40.3125 7.515625 -49.875 C 7.515625 -59.4375 9.394531 -68.144531 13.15625 -76 C 16.914062 -83.863281 22.664062 -90.128906 30.40625 -94.796875 C 38.144531 -99.460938 47.9375 -101.796875 59.78125 -101.796875 Z M 59.78125 -101.796875 "/></g></g></g><g fill="#7a4900" fill-opacity="1"><g transform="translate(917.014428, 350.795676)"><g><path d="M 43.046875 0 L 4.609375 0 L 4.609375 -6.15625 L 6.828125 -6.15625 C 8.191406 -6.15625 9.328125 -6.632812 10.234375 -7.59375 C 11.148438 -8.5625 11.609375 -9.734375 11.609375 -11.109375 L 11.609375 -88.484375 C 11.609375 -89.847656 11.148438 -91.039062 10.234375 -92.0625 C 9.328125 -93.09375 8.191406 -93.609375 6.828125 -93.609375 L 4.609375 -93.609375 L 4.609375 -99.578125 L 55.859375 -99.578125 C 61.429688 -99.578125 66.46875 -98.46875 70.96875 -96.25 C 75.46875 -94.03125 79.054688 -90.8125 81.734375 -86.59375 C 84.410156 -82.382812 85.75 -77.320312 85.75 -71.40625 C 85.75 -65.132812 84.238281 -59.804688 81.21875 -55.421875 C 78.195312 -51.046875 74.238281 -47.832031 69.34375 -45.78125 L 85.40625 -12.984375 C 86.3125 -10.816406 87.757812 -9.132812 89.75 -7.9375 C 91.75 -6.75 93.945312 -6.15625 96.34375 -6.15625 L 98.21875 -6.15625 L 98.21875 0 L 72.9375 0 C 70.539062 0 68.316406 -0.648438 66.265625 -1.953125 C 64.222656 -3.265625 62.6875 -5.003906 61.65625 -7.171875 L 43.90625 -43.21875 L 36.046875 -43.21875 L 36.046875 -10.9375 C 36.046875 -9.5625 36.523438 -8.421875 37.484375 -7.515625 C 38.453125 -6.609375 39.625 -6.15625 41 -6.15625 L 43.046875 -6.15625 Z M 36.046875 -49.1875 L 45.78125 -49.1875 C 50.445312 -49.1875 54.257812 -51.289062 57.21875 -55.5 C 60.175781 -59.71875 61.65625 -65.078125 61.65625 -71.578125 C 61.65625 -77.609375 60.203125 -82.785156 57.296875 -87.109375 C 54.398438 -91.441406 50.5625 -93.609375 45.78125 -93.609375 L 36.046875 -93.609375 Z M 36.046875 -49.1875 "/></g></g></g><g fill="#7a4900" fill-opacity="1"><g transform="translate(1038.455858, 350.795676)"><g><path d="M 4.609375 -99.75 L 43.046875 -99.578125 L 43.046875 -93.609375 L 41 -93.609375 C 39.625 -93.609375 38.453125 -93.09375 37.484375 -92.0625 C 36.523438 -91.039062 36.046875 -89.847656 36.046875 -88.484375 L 36.046875 -10.9375 C 36.046875 -9.5625 36.523438 -8.421875 37.484375 -7.515625 C 38.453125 -6.609375 39.625 -6.15625 41 -6.15625 L 43.046875 -6.15625 L 43.046875 0 L 4.609375 0 L 4.609375 -6.15625 L 6.828125 -6.15625 C 8.191406 -6.15625 9.328125 -6.609375 10.234375 -7.515625 C 11.148438 -8.421875 11.609375 -9.5625 11.609375 -10.9375 L 11.609375 -88.65625 C 11.609375 -90.019531 11.148438 -91.1875 10.234375 -92.15625 C 9.328125 -93.125 8.191406 -93.609375 6.828125 -93.609375 L 4.609375 -93.609375 Z M 4.609375 -99.75 "/></g></g></g><g fill="#7a4900" fill-opacity="1"><g transform="translate(1108.147284, 350.795676)"><g><path d="M 4.609375 -99.578125 L 43.046875 -99.578125 L 43.046875 -93.609375 L 41 -93.609375 C 39.625 -93.609375 38.453125 -93.09375 37.484375 -92.0625 C 36.523438 -91.039062 36.046875 -89.847656 36.046875 -88.484375 L 36.046875 -6.15625 L 69.171875 -6.15625 C 71.910156 -6.15625 74.273438 -7.035156 76.265625 -8.796875 C 78.253906 -10.554688 79.363281 -12.75 79.59375 -15.375 L 79.59375 -18.625 L 85.75 -18.625 L 85.75 0 L 4.609375 0 L 4.609375 -6.15625 L 6.828125 -6.15625 C 8.191406 -6.15625 9.328125 -6.609375 10.234375 -7.515625 C 11.148438 -8.421875 11.609375 -9.5625 11.609375 -10.9375 L 11.609375 -88.484375 C 11.609375 -89.847656 11.148438 -91.039062 10.234375 -92.0625 C 9.328125 -93.09375 8.191406 -93.609375 6.828125 -93.609375 L 4.609375 -93.609375 Z M 4.609375 -99.578125 "/></g></g></g><g fill="#7a4900" fill-opacity="1"><g transform="translate(1217.291645, 350.795676)"><g><path d="M 4.609375 -99.578125 L 43.046875 -99.578125 L 43.046875 -93.609375 L 41 -93.609375 C 39.625 -93.609375 38.453125 -93.09375 37.484375 -92.0625 C 36.523438 -91.039062 36.046875 -89.847656 36.046875 -88.484375 L 36.046875 -6.15625 L 69.171875 -6.15625 C 71.910156 -6.15625 74.273438 -7.035156 76.265625 -8.796875 C 78.253906 -10.554688 79.363281 -12.75 79.59375 -15.375 L 79.59375 -18.625 L 85.75 -18.625 L 85.75 0 L 4.609375 0 L 4.609375 -6.15625 L 6.828125 -6.15625 C 8.191406 -6.15625 9.328125 -6.609375 10.234375 -7.515625 C 11.148438 -8.421875 11.609375 -9.5625 11.609375 -10.9375 L 11.609375 -88.484375 C 11.609375 -89.847656 11.148438 -91.039062 10.234375 -92.0625 C 9.328125 -93.09375 8.191406 -93.609375 6.828125 -93.609375 L 4.609375 -93.609375 Z M 4.609375 -99.578125 "/></g></g></g></g></g></svg>